<svg xmlns="http://www.w3.org/2000/svg" width="66.8499984741211" height="84" viewBox="6.555000305175781 -2 66.8499984741211 84"><defs><radialGradient id="qv-grad-1" cx="0.5" cy="0.5" r="0.5"><stop offset="0" stop-color="#f9fcfa" stop-opacity="0"/><stop offset="0" stop-color="#ffffff" stop-opacity="0"/></radialGradient></defs>
<!-- SVG created with Arrow, by QuiverAI (https://quiver.ai) -->
  <rect x="8.555" width="62.85" height="80" fill="#F9FCFA" style="fill: url(#qv-grad-1);"/>
  <circle cx="39.74" cy="31.26" r="24.95" fill="#03A650" style="fill: none;"/>
  <path d="m59.66 36.68c-2.31-5.49-7.19-14.58-11.66-14.58-3.77 0-6.15 5.03-7.81 8.41-0.32 0.69-1.11 0.69-1.48-0.01-1.74-3.32-3.72-7.21-6.89-7.21-4.5 0-9.21 9.47-11.74 14.39-0.99 1.97 0.55 4.07 2.51 4.07 1.63 0 3.3-1.35 4.05-2.84l2.89-5.56c0.99-1.85 1.97-3.05 3.1-3.05 1.29 0 2.06 1.23 2.99 2.99l2.23 4.23c0.59 1.14 1.87 1.09 2.43-0.01 1.87-3.75 4.71-9.55 7.22-9.55 3.02 0 7.39 6.89 9.91 10.6 1.23 1.77 2.94 0.07 2.25-1.88z" fill="#fff" style="fill: rgb(91, 137, 250);"/>
  <path d="m45.67 41.62v-8.69c0-1.1 1.14-1.61 2-0.97l5.8 4.41c0.72 0.53 0.67 1.55-0.09 2.07l-5.89 4.13c-0.94 0.61-1.82 0.08-1.82-0.95z" fill="#fff" style="fill: rgb(91, 137, 250);"/>
  <path d="m25.52 61.85-4.12 7.19-4.08-7.19c-0.83-0.03-1.61-0.02-2.32 0.04v11.6c0.75 0.05 1.49 0.05 2.17 0v-7.67l3.62 6.35c0.48 0.06 0.92 0.06 1.28 0l3.59-6.36v7.68c0.79 0.05 1.54 0.04 2.1-0.02v-11.58c-0.73-0.07-1.49-0.07-2.24-0.04z" fill="#132426"/>
  <path d="m33.29 64.81c-2.58 0-4.3 1.89-4.3 4.41 0 2.65 1.95 4.46 4.34 4.46 1.71 0 3.18-0.91 3.71-2.02l-1.63-0.79c-0.44 0.56-1.21 0.85-2.05 0.85-1.29 0-2.16-0.8-2.24-1.79h6.19c0.35-2.91-1.28-5.12-4.02-5.12zm-2.18 3.5c0.18-1.04 1.17-1.66 2.23-1.66 1.17 0 1.93 0.73 1.96 1.66h-4.19z" fill="#132426"/>
  <path d="m38.49 61.74v11.73c0.74 0.07 1.46 0.06 2.05 0v-11.73c-0.69-0.05-1.39-0.05-2.05 0z" fill="#132426"/>
  <path d="m46.05 64.81c-2.61 0-4.49 1.94-4.49 4.43 0 2.53 1.93 4.46 4.47 4.46 2.59 0 4.45-1.99 4.45-4.48 0.01-2.57-1.83-4.41-4.43-4.41zm0 6.82c-1.43 0-2.36-1.05-2.36-2.4 0-1.41 1.03-2.47 2.36-2.47 1.4 0 2.27 1.09 2.27 2.44 0 1.4-0.93 2.43-2.27 2.43z" fill="#132426"/>
  <path d="m53.47 65.99v-0.96c-0.78-0.05-1.52-0.04-2 0.02v8.42c0.76 0.07 1.49 0.06 2.03 0v-4.48c0-1.71 1.29-2.31 2.87-2.06 0.09-0.73 0.09-1.48 0-1.99-1.29-0.2-2.31 0.22-2.9 1.05z" fill="#132426"/>
  <path d="m63.32 65.04-0.1 0.86c-0.65-0.72-1.6-1.09-2.57-1.09-2.41 0-4.09 1.97-4.09 4.43 0 2.53 1.74 4.46 4.1 4.46 1.08 0 2.02-0.47 2.6-1.09l0.06 0.86c0.77 0.06 1.49 0.04 1.93-0.02v-8.4c-0.66-0.06-1.33-0.06-1.93-0.01zm-2.29 6.6c-1.44 0-2.27-1.06-2.27-2.42 0-1.47 1.01-2.48 2.29-2.48 1.4 0 2.21 1.08 2.21 2.44 0 1.46-1 2.46-2.23 2.46z" fill="#132426"/>
</svg>